<svg width="34" height="34" viewBox="0 0 34 34" fill="none" xmlns="http://www.w3.org/2000/svg">
<path d="M29.2401 28.5601H27.2001V10.2001C27.2102 10.0513 27.1701 9.90353 27.0863 9.78025C27.0024 9.65698 26.8797 9.56537 26.7377 9.52008L21.7601 7.43928V28.5601H20.4001V4.76008C20.4001 4.57973 20.3284 4.40677 20.2009 4.27925C20.0734 4.15172 19.9004 4.08008 19.7201 4.08008H7.48008C7.29973 4.08008 7.12677 4.15172 6.99925 4.27925C6.87172 4.40677 6.80008 4.57973 6.80008 4.76008V28.5601H4.76008C4.57973 28.5601 4.40677 28.6317 4.27925 28.7592C4.15172 28.8868 4.08008 29.0597 4.08008 29.2401C4.08008 29.4204 4.15172 29.5934 4.27925 29.7209C4.40677 29.8484 4.57973 29.9201 4.76008 29.9201H29.2401C29.4204 29.9201 29.5934 29.8484 29.7209 29.7209C29.8484 29.5934 29.9201 29.4204 29.9201 29.2401C29.9201 29.0597 29.8484 28.8868 29.7209 28.7592C29.5934 28.6317 29.4204 28.5601 29.2401 28.5601ZM23.8001 12.2401H25.1601C25.3404 12.2401 25.5134 12.3117 25.6409 12.4392C25.7684 12.5668 25.8401 12.7397 25.8401 12.9201C25.8366 13.0993 25.7638 13.2703 25.6371 13.3971C25.5103 13.5238 25.3393 13.5966 25.1601 13.6001H23.8001C23.6208 13.5966 23.4499 13.5238 23.3231 13.3971C23.1963 13.2703 23.1236 13.0993 23.1201 12.9201C23.1201 12.7397 23.1917 12.5668 23.3192 12.4392C23.4468 12.3117 23.6197 12.2401 23.8001 12.2401ZM23.8001 16.3201H25.1601C25.3404 16.3201 25.5134 16.3917 25.6409 16.5192C25.7684 16.6468 25.8401 16.8197 25.8401 17.0001C25.8401 17.1804 25.7684 17.3534 25.6409 17.4809C25.5134 17.6084 25.3404 17.6801 25.1601 17.6801H23.8001C23.6197 17.6801 23.4468 17.6084 23.3192 17.4809C23.1917 17.3534 23.1201 17.1804 23.1201 17.0001C23.1201 16.8197 23.1917 16.6468 23.3192 16.5192C23.4468 16.3917 23.6197 16.3201 23.8001 16.3201ZM23.8001 20.4001H25.1601C25.3393 20.4036 25.5103 20.4763 25.6371 20.6031C25.7638 20.7299 25.8366 20.9008 25.8401 21.0801C25.8401 21.2604 25.7684 21.4334 25.6409 21.5609C25.5134 21.6884 25.3404 21.7601 25.1601 21.7601H23.8001C23.6197 21.7601 23.4468 21.6884 23.3192 21.5609C23.1917 21.4334 23.1201 21.2604 23.1201 21.0801C23.1236 20.9008 23.1963 20.7299 23.3231 20.6031C23.4499 20.4763 23.6208 20.4036 23.8001 20.4001ZM23.8001 24.4801H25.1601C25.3404 24.4801 25.5134 24.5517 25.6409 24.6792C25.7684 24.8068 25.8401 24.9797 25.8401 25.1601C25.8401 25.3404 25.7684 25.5134 25.6409 25.6409C25.5134 25.7684 25.3404 25.8401 25.1601 25.8401H23.8001C23.6197 25.8401 23.4468 25.7684 23.3192 25.6409C23.1917 25.5134 23.1201 25.3404 23.1201 25.1601C23.1201 24.9797 23.1917 24.8068 23.3192 24.6792C23.4468 24.5517 23.6197 24.4801 23.8001 24.4801ZM14.9601 8.16008H16.3201C16.5004 8.16008 16.6734 8.23172 16.8009 8.35925C16.9284 8.48677 17.0001 8.65973 17.0001 8.84008C17.0001 9.02043 16.9284 9.19339 16.8009 9.32091C16.6734 9.44844 16.5004 9.52008 16.3201 9.52008H14.9601C14.7797 9.52008 14.6068 9.44844 14.4792 9.32091C14.3517 9.19339 14.2801 9.02043 14.2801 8.84008C14.2801 8.65973 14.3517 8.48677 14.4792 8.35925C14.6068 8.23172 14.7797 8.16008 14.9601 8.16008ZM14.9601 12.2401H16.3201C16.5004 12.2401 16.6734 12.3117 16.8009 12.4392C16.9284 12.5668 17.0001 12.7397 17.0001 12.9201C17.0001 13.1004 16.9284 13.2734 16.8009 13.4009C16.6734 13.5284 16.5004 13.6001 16.3201 13.6001H14.9601C14.7797 13.6001 14.6068 13.5284 14.4792 13.4009C14.3517 13.2734 14.2801 13.1004 14.2801 12.9201C14.2801 12.7397 14.3517 12.5668 14.4792 12.4392C14.6068 12.3117 14.7797 12.2401 14.9601 12.2401ZM14.9601 16.3201H16.3201C16.5004 16.3201 16.6734 16.3917 16.8009 16.5192C16.9284 16.6468 17.0001 16.8197 17.0001 17.0001C17.0001 17.1804 16.9284 17.3534 16.8009 17.4809C16.6734 17.6084 16.5004 17.6801 16.3201 17.6801H14.9601C14.7797 17.6801 14.6068 17.6084 14.4792 17.4809C14.3517 17.3534 14.2801 17.1804 14.2801 17.0001C14.2801 16.8197 14.3517 16.6468 14.4792 16.5192C14.6068 16.3917 14.7797 16.3201 14.9601 16.3201ZM14.9601 20.4001H16.3201C16.5004 20.4001 16.6734 20.4717 16.8009 20.5992C16.9284 20.7268 17.0001 20.8997 17.0001 21.0801C17.0001 21.2604 16.9284 21.4334 16.8009 21.5609C16.6734 21.6884 16.5004 21.7601 16.3201 21.7601H14.9601C14.7797 21.7601 14.6068 21.6884 14.4792 21.5609C14.3517 21.4334 14.2801 21.2604 14.2801 21.0801C14.2801 20.8997 14.3517 20.7268 14.4792 20.5992C14.6068 20.4717 14.7797 20.4001 14.9601 20.4001ZM10.7985 8.16008H12.2401C12.4204 8.16008 12.5934 8.23172 12.7209 8.35925C12.8484 8.48677 12.9201 8.65973 12.9201 8.84008C12.9201 9.02043 12.8484 9.19339 12.7209 9.32091C12.5934 9.44844 12.4204 9.52008 12.2401 9.52008H10.8801C10.6997 9.52008 10.5268 9.44844 10.3992 9.32091C10.2717 9.19339 10.2001 9.02043 10.2001 8.84008C10.2001 8.65973 10.2717 8.48677 10.3992 8.35925C10.5268 8.23172 10.6997 8.16008 10.8801 8.16008H10.7985ZM10.7985 12.2401H12.2401C12.4204 12.2401 12.5934 12.3117 12.7209 12.4392C12.8484 12.5668 12.9201 12.7397 12.9201 12.9201C12.9201 13.1004 12.8484 13.2734 12.7209 13.4009C12.5934 13.5284 12.4204 13.6001 12.2401 13.6001H10.8801C10.6997 13.6001 10.5268 13.5284 10.3992 13.4009C10.2717 13.2734 10.2001 13.1004 10.2001 12.9201C10.2001 12.7397 10.2717 12.5668 10.3992 12.4392C10.5268 12.3117 10.6997 12.2401 10.8801 12.2401H10.7985ZM10.7985 16.3201H12.2401C12.4204 16.3201 12.5934 16.3917 12.7209 16.5192C12.8484 16.6468 12.9201 16.8197 12.9201 17.0001C12.9201 17.1804 12.8484 17.3534 12.7209 17.4809C12.5934 17.6084 12.4204 17.6801 12.2401 17.6801H10.8801C10.6997 17.6801 10.5268 17.6084 10.3992 17.4809C10.2717 17.3534 10.2001 17.1804 10.2001 17.0001C10.2001 16.8197 10.2717 16.6468 10.3992 16.5192C10.5268 16.3917 10.6997 16.3201 10.8801 16.3201H10.7985ZM10.7985 20.4001H12.2401C12.4204 20.4001 12.5934 20.4717 12.7209 20.5992C12.8484 20.7268 12.9201 20.8997 12.9201 21.0801C12.9201 21.2604 12.8484 21.4334 12.7209 21.5609C12.5934 21.6884 12.4204 21.7601 12.2401 21.7601H10.8801C10.6997 21.7601 10.5268 21.6884 10.3992 21.5609C10.2717 21.4334 10.2001 21.2604 10.2001 21.0801C10.2001 20.8997 10.2717 20.7268 10.3992 20.5992C10.5268 20.4717 10.6997 20.4001 10.8801 20.4001H10.7985ZM14.2801 28.5601V25.8401H12.9201V28.5601H11.5601V25.1193C11.5705 24.9461 11.6467 24.7834 11.7731 24.6646C11.8995 24.5458 12.0666 24.4798 12.2401 24.4801H14.9601C15.1404 24.4801 15.3134 24.5517 15.4409 24.6792C15.5684 24.8068 15.6401 24.9797 15.6401 25.1601V28.5601H14.2801Z" fill="#2B3344"/>
</svg>
