<svg width="34" height="34" viewBox="0 0 34 34" fill="none" xmlns="http://www.w3.org/2000/svg">
<path d="M12.3758 16.4219H21.5898C21.8278 16.4219 21.9978 16.2519 21.9978 16.0139C21.9978 14.1099 21.3518 13.4639 19.5498 12.7159C19.2778 12.5799 18.9378 12.6819 18.7678 12.9539L17.8158 14.4839C17.7818 14.5519 17.6798 14.5179 17.6798 14.4499L17.2718 13.1239C17.2378 13.0559 17.2718 12.9879 17.3058 12.9539L17.6118 12.6479C17.6798 12.5799 17.6458 12.4779 17.5438 12.4779H16.4898C16.3878 12.4779 16.3538 12.5799 16.4218 12.6479L16.7278 12.9539C16.7618 12.9879 16.7958 13.0559 16.7618 13.1239L16.3198 14.4839C16.2858 14.5519 16.2178 14.5519 16.1838 14.5179L15.2318 12.9879C15.0618 12.7159 14.7218 12.6139 14.4498 12.7499C12.6478 13.4979 12.0018 14.1439 12.0018 16.0479C11.9678 16.2519 12.1718 16.4219 12.3758 16.4219ZM16.9998 11.9339C19.3458 11.9339 20.6038 6.5619 16.9998 6.4939C13.3958 6.5619 14.6538 11.9339 16.9998 11.9339Z" fill="#2B3344"/>
<path d="M6.69782 32.3H22.3718C22.8818 32.3 23.3578 32.096 23.6978 31.722L28.6278 26.52C28.9338 26.18 29.1378 25.738 29.1378 25.262V3.50202C29.1378 2.48202 28.3218 1.66602 27.3018 1.66602H6.69782C5.67782 1.66602 4.86182 2.48202 4.86182 3.50202V30.464C4.86182 31.484 5.67782 32.3 6.69782 32.3ZM7.37782 4.86202C7.37782 4.52202 7.64982 4.21602 8.02382 4.21602H25.9758C26.3158 4.21602 26.6218 4.48802 26.6218 4.86202V24.276C26.6218 24.616 26.3498 24.922 25.9758 24.922H22.2698C21.9298 24.922 21.6238 25.194 21.6238 25.568V29.172C21.6238 29.512 21.3518 29.818 20.9778 29.818H8.02382C7.68382 29.818 7.37782 29.546 7.37782 29.172V4.86202Z" fill="#2B3344"/>
<path d="M12.2518 25.7453H15.4138C15.5838 25.7453 15.7198 25.6093 15.7198 25.4393V24.6573C15.7198 24.4873 15.5838 24.3513 15.4138 24.3513H12.2518C12.0818 24.3513 11.9458 24.4873 11.9458 24.6573V25.4393C11.9458 25.6093 12.0818 25.7453 12.2518 25.7453ZM12.2518 29.0093H15.4138C15.5838 29.0093 15.7198 28.8733 15.7198 28.7033V27.9213C15.7198 27.7513 15.5838 27.6153 15.4138 27.6153H12.2518C12.0818 27.6153 11.9458 27.7513 11.9458 27.9213V28.7033C11.9458 28.8733 12.0818 29.0093 12.2518 29.0093ZM17.0798 25.7453H23.4038C23.5738 25.7453 23.7098 25.6093 23.7098 25.4393V24.6573C23.7098 24.4873 23.5738 24.3513 23.4038 24.3513H17.0798C16.9098 24.3513 16.7738 24.4873 16.7738 24.6573V25.4393C16.7738 25.6093 16.9098 25.7453 17.0798 25.7453ZM16.7738 27.9213V28.7033C16.7738 28.8733 16.9098 29.0093 17.0798 29.0093H25.4778C25.6478 29.0093 25.7838 28.8733 25.7838 28.7033V27.9213C25.7838 27.7513 25.6478 27.6153 25.4778 27.6153H17.0798C16.9098 27.5813 16.7738 27.7513 16.7738 27.9213ZM12.2518 32.2733H15.4138C15.5838 32.2733 15.7198 32.1373 15.7198 31.9673V31.1853C15.7198 31.0153 15.5838 30.8793 15.4138 30.8793H12.2518C12.0818 30.8793 11.9458 31.0153 11.9458 31.1853V31.9673C11.9458 32.1373 12.0818 32.2733 12.2518 32.2733ZM22.2818 30.8453H17.0798C16.9098 30.8453 16.7738 30.9813 16.7738 31.1513V31.9333C16.7738 32.1033 16.9098 32.2393 17.0798 32.2393H22.2818C22.4518 32.2393 22.5878 32.1033 22.5878 31.9333V31.1513C22.6218 30.9813 22.4518 30.8453 22.2818 30.8453Z" fill="#2B3344"/>
</svg>
