<svg width="38" height="38" viewBox="0 0 38 38" fill="none" xmlns="http://www.w3.org/2000/svg">
<path d="M37.24 19.4223C37.24 17.86 37.1132 16.72 36.8389 15.5378H19V22.5889H29.471C29.26 24.3411 28.12 26.98 25.5866 28.7533L25.5511 28.9893L31.1914 33.3588L31.5822 33.3978C35.171 30.0834 37.24 25.2067 37.24 19.4223Z" fill="#4285F4"/>
<path d="M19.0002 38C24.1302 38 28.4368 36.311 31.5824 33.3978L25.5868 28.7533C23.9824 29.8722 21.8291 30.6533 19.0002 30.6533C13.9758 30.6533 9.71141 27.3389 8.19127 22.7578L7.96845 22.7767L2.10355 27.3156L2.02686 27.5288C5.15127 33.7355 11.5691 38 19.0002 38Z" fill="#34A853"/>
<path d="M8.19103 22.7578C7.78992 21.5756 7.55779 20.3089 7.55779 19C7.55779 17.6911 7.78993 16.4245 8.16992 15.2423L8.1593 14.9905L2.22091 10.3787L2.02662 10.4711C0.738897 13.0467 0 15.9389 0 19C0 22.0611 0.738897 24.9533 2.02662 27.5289L8.19103 22.7578Z" fill="#FBBC05"/>
<path d="M19.0002 7.34662C22.5679 7.34662 24.9746 8.88772 26.3468 10.1756L31.709 4.94C28.4158 1.8789 24.1302 0 19.0002 0C11.5691 0 5.15127 4.26441 2.02686 10.471L8.17016 15.2422C9.71141 10.6611 13.9758 7.34662 19.0002 7.34662Z" fill="#EB4335"/>
</svg>
