<svg width="35" height="35" viewBox="0 0 35 35" fill="none" xmlns="http://www.w3.org/2000/svg">
<path d="M34.1533 29.9345L29.6687 25.4536C29.4345 25.2195 29.1328 25.0645 28.8061 25.0104C28.4793 24.9563 28.1438 25.0058 27.8466 25.1519L26.3289 23.6348C28.6022 20.6772 29.6646 16.9659 29.3007 13.2539C28.9368 9.54193 27.1737 6.10742 24.3693 3.64741C21.5648 1.18739 17.9292 -0.11383 14.2001 0.00782143C10.4711 0.129473 6.92804 1.66488 4.29003 4.30245C1.65755 6.94074 0.126671 10.4807 0.00751515 14.2051C-0.11164 17.9296 1.18984 21.5601 3.6483 24.3612C6.10676 27.1622 9.53837 28.9244 13.2479 29.2907C16.9575 29.657 20.6677 28.6 23.6268 26.3339L25.1445 27.851C24.9986 28.1484 24.9494 28.4839 25.0039 28.8106C25.0584 29.1372 25.2138 29.4386 25.4483 29.6726L29.9328 34.1556C30.4955 34.7022 31.2507 35.0055 32.0353 34.9999C32.8198 34.9943 33.5706 34.6803 34.1254 34.1257C34.6802 33.5711 34.9943 32.8205 34.9999 32.0363C35.0055 31.252 34.7021 30.497 34.1553 29.9345H34.1533ZM23.347 25.2484L23.3333 25.2607C20.6199 27.4842 17.155 28.5793 13.6561 28.3191C10.1572 28.0589 6.89253 26.4633 4.53821 23.8628C2.18389 21.2623 0.920353 17.8562 1.0093 14.35C1.09825 10.8437 2.53287 7.50603 5.01601 5.02819C7.4964 2.55468 10.8324 1.12802 14.3349 1.04293C17.8374 0.957838 21.2388 2.22081 23.8364 4.57096C26.4341 6.9211 28.0295 10.1789 28.2932 13.6713C28.5569 17.1637 27.4686 20.6239 25.2533 23.3372L25.2382 23.355C24.9563 23.697 24.6566 24.0269 24.3391 24.3448C24.0216 24.6626 23.6909 24.9638 23.347 25.2484ZM24.4219 25.6765C24.6416 25.4809 24.8571 25.2798 25.0665 25.0705C25.2759 24.8612 25.477 24.6457 25.6727 24.4262L27.0611 25.8147L25.8109 27.0644L24.4219 25.6765ZM33.4273 33.4299C33.0597 33.7968 32.5615 34.0029 32.042 34.0029C31.5226 34.0029 31.0243 33.7968 30.6568 33.4299L26.1722 28.9468C26.067 28.8414 26.008 28.6986 26.008 28.5498C26.008 28.4009 26.067 28.2581 26.1722 28.1527L28.1483 26.1772C28.2538 26.0721 28.3966 26.0131 28.5455 26.0131C28.6944 26.0131 28.8373 26.0721 28.9427 26.1772L33.4273 30.6603C33.7943 31.0277 34.0005 31.5258 34.0005 32.0451C34.0005 32.5644 33.7943 33.0624 33.4273 33.4299ZM20.2535 11.0208H18.1323V10.2322C18.132 9.84968 17.9799 9.48292 17.7096 9.21227C17.4392 8.94161 17.0726 8.78912 16.6899 8.78822H12.6666C12.2836 8.78858 11.9164 8.94083 11.6456 9.21154C11.3748 9.48226 11.2225 9.84932 11.2221 10.2322V11.0208H9.10096C8.74152 11.021 8.39685 11.1638 8.14269 11.4179C7.88852 11.672 7.74565 12.0166 7.74547 12.3759V19.229C7.74565 19.5884 7.8885 19.933 8.14264 20.1872C8.39679 20.4414 8.74146 20.5844 9.10096 20.5847H20.2542C20.6136 20.5842 20.9582 20.4412 21.2123 20.187C21.4664 19.9329 21.6093 19.5884 21.6097 19.229V12.3759C21.6093 12.0165 21.4663 11.6719 21.212 11.4179C20.9577 11.1638 20.613 11.021 20.2535 11.0208ZM12.2478 10.2322C12.248 10.1214 12.2921 10.0152 12.3705 9.93685C12.4488 9.85851 12.5551 9.81442 12.6659 9.81424H16.6899C16.8008 9.81442 16.907 9.85851 16.9854 9.93685C17.0637 10.0152 17.1078 10.1214 17.108 10.2322V11.0208H12.2499L12.2478 10.2322ZM20.5833 19.229C20.5833 19.3165 20.5485 19.4003 20.4867 19.4622C20.4248 19.524 20.341 19.5587 20.2535 19.5587H9.10028C9.01293 19.5585 8.92921 19.5237 8.86751 19.4619C8.80581 19.4001 8.77116 19.3163 8.77116 19.229V14.8787L13.1366 16.7782V17.112C13.137 17.3749 13.2417 17.627 13.4276 17.8129C13.6136 17.9988 13.8658 18.1035 14.1288 18.1038H15.2236C15.4866 18.1035 15.7388 17.9988 15.9248 17.8129C16.1107 17.627 16.2154 17.3749 16.2158 17.112V16.7782L20.5833 14.8787V19.229ZM14.1644 17.0778V16.0518H15.1908V17.0778H14.1644ZM20.5833 13.7569L16.1583 15.6817C16.0896 15.4892 15.9631 15.3225 15.796 15.2046C15.6289 15.0867 15.4295 15.0233 15.225 15.023H14.1302C13.926 15.0244 13.7271 15.0886 13.5607 15.2069C13.3944 15.3253 13.2685 15.492 13.2003 15.6845L8.77252 13.7569V12.3759C8.7727 12.2887 8.80744 12.2051 8.86912 12.1434C8.93081 12.0818 9.01441 12.047 9.10165 12.0469H20.2549C20.3422 12.0469 20.426 12.0815 20.4878 12.1432C20.5497 12.2049 20.5845 12.2886 20.5847 12.3759L20.5833 13.7569ZM23.1075 6.25941C18.4594 1.6129 10.8957 1.6129 6.24766 6.25941C4.0119 8.49441 2.75587 11.5257 2.75587 14.6865C2.75587 17.8472 4.0119 20.8785 6.24766 23.1135C8.48341 25.3485 11.5157 26.6041 14.6776 26.6041C17.8394 26.6041 20.8717 25.3485 23.1075 23.1135C24.2145 22.0069 25.0927 20.6931 25.6918 19.2472C26.2909 17.8013 26.5993 16.2515 26.5993 14.6865C26.5993 13.1214 26.2909 11.5717 25.6918 10.1258C25.0927 8.67986 24.2145 7.36607 23.1075 6.25941ZM22.3822 22.3885C20.5998 24.1707 18.2543 25.28 15.7454 25.5273C13.2366 25.7746 10.7195 25.1446 8.62325 23.7447C6.52696 22.3447 4.9811 20.2615 4.24907 17.8499C3.51704 15.4383 3.64414 12.8476 4.60871 10.5192C5.57328 8.19076 7.31564 6.26872 9.5389 5.08057C11.7622 3.89241 14.3288 3.51165 16.8014 4.00316C19.274 4.49467 21.4996 5.82805 23.0991 7.77609C24.6985 9.72413 25.5727 12.1663 25.5728 14.6865C25.5747 16.1171 25.2938 17.534 24.7463 18.8557C24.1987 20.1775 23.3953 21.3781 22.3822 22.3885Z" fill="#2B3344"/>
</svg>
