<svg width="36" height="29" viewBox="0 0 36 29" fill="none" xmlns="http://www.w3.org/2000/svg">
<path d="M35.1 25.375H30.6V6.42584C30.6 4.88181 29.3889 3.62495 27.9 3.62495H21.6V7.24996H27V29H35.1C35.5972 29 36 28.5945 36 28.0937V26.2812C36 25.7805 35.5972 25.375 35.1 25.375ZM17.5635 0.057152L6.7635 2.87446C5.96194 3.08347 5.4 3.83452 5.4 4.69659V25.375H0.9C0.40275 25.375 0 25.7805 0 26.2812V28.0937C0 28.5945 0.40275 29 0.9 29H19.8V1.87928C19.8 0.656977 18.6997 -0.239645 17.5635 0.057152ZM14.85 16.3125C14.1047 16.3125 13.5 15.5008 13.5 14.5C13.5 13.4991 14.1047 12.6875 14.85 12.6875C15.5953 12.6875 16.2 13.4991 16.2 14.5C16.2 15.5008 15.5953 16.3125 14.85 16.3125Z" fill="#F8F8F8"/>
</svg>
