<svg width="28" height="35" viewBox="0 0 28 35" fill="none" xmlns="http://www.w3.org/2000/svg">
<path d="M13.6111 15.5556C15.1494 15.5556 16.6532 15.0994 17.9322 14.2448C19.2113 13.3901 20.2082 12.1754 20.7968 10.7542C21.3855 9.333 21.5395 7.76915 21.2394 6.26041C20.9393 4.75167 20.1986 3.3658 19.1108 2.27806C18.0231 1.19032 16.6372 0.449559 15.1285 0.149451C13.6197 -0.150656 12.0559 0.00336996 10.6347 0.592051C9.21348 1.18073 7.99876 2.17763 7.14413 3.45668C6.28949 4.73573 5.83333 6.23948 5.83333 7.77778C5.83333 9.84058 6.65277 11.8189 8.11139 13.2775C9.57001 14.7361 11.5483 15.5556 13.6111 15.5556ZM25.2778 35C25.7935 35 26.2881 34.7951 26.6527 34.4305C27.0174 34.0658 27.2222 33.5713 27.2222 33.0556C27.2222 29.4457 25.7882 25.9836 23.2356 23.431C20.683 20.8785 17.221 19.4444 13.6111 19.4444C10.0012 19.4444 6.53918 20.8785 3.9866 23.431C1.43402 25.9836 5.37916e-08 29.4457 0 33.0556C0 33.5713 0.204861 34.0658 0.569515 34.4305C0.934169 34.7951 1.42875 35 1.94444 35H25.2778Z" fill="#2B3344"/>
</svg>
