<svg width="40" height="28" viewBox="0 0 40 28" fill="none" xmlns="http://www.w3.org/2000/svg">
<path d="M38.1603 19.3293C38.3228 18.4479 38.3228 17.5477 38.1603 16.6662L39.7729 15.7348C39.9605 15.6285 40.0417 15.4097 39.9792 15.2034C39.5604 13.8531 38.8416 12.6278 37.904 11.6151C37.7602 11.4588 37.529 11.4213 37.3414 11.5276L35.7288 12.459C35.0474 11.8777 34.2661 11.4276 33.4223 11.1275V9.26457C33.4223 9.05202 33.2723 8.86448 33.066 8.82072C31.6721 8.50815 30.2532 8.52065 28.9281 8.82072C28.7218 8.86448 28.5718 9.05202 28.5718 9.26457V11.1275C27.7279 11.4276 26.9466 11.8777 26.2653 12.459L24.6526 11.5276C24.4713 11.4213 24.2338 11.4588 24.09 11.6151C23.1524 12.6278 22.4336 13.8531 22.0148 15.2034C21.9523 15.4097 22.0398 15.6285 22.2211 15.7348L23.8338 16.6662C23.6712 17.5477 23.6712 18.4479 23.8338 19.3293L22.2211 20.2608C22.0336 20.367 21.9523 20.5858 22.0148 20.7921C22.4336 22.1424 23.1524 23.3615 24.09 24.3804C24.2338 24.5367 24.4651 24.5742 24.6526 24.468L26.2653 23.5365C26.9466 24.1179 27.7279 24.568 28.5718 24.868V26.731C28.5718 26.9435 28.7218 27.1311 28.9281 27.1748C30.3219 27.4874 31.7408 27.4749 33.066 27.1748C33.2723 27.1311 33.4223 26.9435 33.4223 26.731V24.868C34.2661 24.568 35.0474 24.1179 35.7288 23.5365L37.3414 24.468C37.5227 24.5742 37.7602 24.5367 37.904 24.3804C38.8416 23.3677 39.5604 22.1424 39.9792 20.7921C40.0417 20.5858 39.9542 20.367 39.7729 20.2608L38.1603 19.3293ZM31.0033 21.0297C29.3281 21.0297 27.9717 19.6669 27.9717 17.9978C27.9717 16.3286 29.3343 14.9658 31.0033 14.9658C32.6722 14.9658 34.0348 16.3286 34.0348 17.9978C34.0348 19.6669 32.6784 21.0297 31.0033 21.0297ZM6.00063 11.9964C8.20712 11.9964 10.0011 10.2023 10.0011 7.99553C10.0011 5.78879 8.20712 3.99464 6.00063 3.99464C3.79415 3.99464 2.00021 5.78879 2.00021 7.99553C2.00021 10.2023 3.79415 11.9964 6.00063 11.9964ZM20.0021 13.9969C20.1209 13.9969 20.2334 13.9656 20.3521 13.9594C20.871 12.6028 21.6335 11.3275 22.6211 10.2585C23.0837 9.75843 23.74 9.47086 24.4276 9.47086C24.8589 9.47086 25.2839 9.58339 25.6527 9.80219L26.1465 10.0898C26.1965 10.0585 26.2465 10.0335 26.2965 10.0022C26.7341 9.08953 26.9966 8.0768 26.9966 7.00156C26.9966 3.13195 23.865 0 19.9959 0C16.1267 0 13.0014 3.1257 13.0014 6.99531C13.0014 10.8649 16.133 13.9969 20.0021 13.9969ZM26.5778 26.1558C26.434 26.0808 26.2903 25.9933 26.1528 25.912C25.6402 26.2121 25.1964 26.5247 24.4338 26.5247C23.7525 26.5247 23.0962 26.2371 22.6274 25.737C21.4835 24.4992 20.6084 22.9926 20.1146 21.386C19.4458 19.2293 21.671 18.2791 21.7273 18.2416C21.721 18.079 21.721 17.9165 21.7273 17.754L21.2335 17.4664C20.996 17.3289 20.7959 17.1538 20.6209 16.96C20.4147 16.9725 20.2146 16.9975 20.0084 16.9975C18.4707 16.9975 17.033 16.6225 15.7267 15.9973H15.2079C11.2262 15.9973 8.00084 19.223 8.00084 23.1989V24.9993C8.00084 26.656 9.34474 28 11.0012 28H26.9653C26.7341 27.6249 26.5778 27.1998 26.5778 26.731V26.1558ZM10.8199 15.1596C10.0948 14.4407 9.10096 13.9969 8.00084 13.9969H4.00042C1.79394 13.9969 0 15.791 0 17.9978V19.9982C0 21.1047 0.893844 21.9987 2.00021 21.9987H6.1194C6.51319 19.0355 8.30088 16.5412 10.8199 15.1596Z" fill="#232323"/>
</svg>
