<svg width="37" height="37" viewBox="0 0 37 37" fill="none" xmlns="http://www.w3.org/2000/svg">
<mask id="mask0_8_152" style="mask-type:luminance" maskUnits="userSpaceOnUse" x="0" y="0" width="37" height="37">
<path d="M37 0H0V37H37V0Z" fill="white"/>
</mask>
<g mask="url(#mask0_8_152)">
<path d="M32.6641 0H4.33594C1.94127 0 0 1.94127 0 4.33594V32.6641C0 35.0587 1.94127 37 4.33594 37H32.6641C35.0587 37 37 35.0587 37 32.6641V4.33594C37 1.94127 35.0587 0 32.6641 0Z" fill="black"/>
<path d="M25.7198 7.22656H29.5447L21.1885 16.7772L31.0189 29.7734H23.3218L17.2931 21.8913L10.3949 29.7734H6.56776L15.5055 19.558L6.0752 7.22656H13.9677L19.4171 14.4312L25.7198 7.22656ZM24.3774 27.4841H26.4968L12.8161 9.39569H10.5418L24.3774 27.4841Z" fill="white"/>
</g>
</svg>
